<?xml version="1.0" encoding="utf-8"?>
<!-- Generator: Adobe Illustrator 22.0.0, SVG Export Plug-In . SVG Version: 6.00 Build 0)  -->
<svg version="1.1" id="Layer_1" xmlns="http://www.w3.org/2000/svg" xmlns:xlink="http://www.w3.org/1999/xlink" x="0px" y="0px"
	 viewBox="0 0 1080 1920" style="enable-background:new 0 0 1080 1920;" xml:space="preserve">
<style type="text/css">
	.st0{fill:url(#SVGID_1_);}
	.st1{fill:url(#SVGID_2_);}
	.st2{fill:url(#SVGID_3_);}
	.st3{fill:url(#SVGID_4_);}
	.st4{fill:url(#SVGID_5_);}
	.st5{fill:url(#SVGID_6_);}
	.st6{fill:url(#SVGID_7_);}
	.st7{fill:url(#SVGID_8_);}
	.st8{fill:url(#SVGID_9_);}
	.st9{fill:url(#SVGID_10_);}
	.st10{fill:url(#SVGID_11_);}
</style>
<linearGradient id="SVGID_1_" gradientUnits="userSpaceOnUse" x1="-182.3874" y1="1347.4274" x2="-46.8027" y2="1347.4274" gradientTransform="matrix(0.9753 -0.2207 0.2207 0.9753 6.0031 363.8358)">
	<stop  offset="1.511000e-03" style="stop-color:#AD1C5A"/>
	<stop  offset="0.3556" style="stop-color:#C42351"/>
	<stop  offset="0.7245" style="stop-color:#D52849"/>
	<stop  offset="0.9995" style="stop-color:#DB2A47"/>
</linearGradient>
<path class="st0" d="M257.9,1689.1c8.5,35.5-14.3,70.7-50.9,78.6c-36.6,7.9-73.1-14.6-81.6-50.1s14.3-70.7,50.9-78.6
	S249.5,1653.5,257.9,1689.1z"/>
<linearGradient id="SVGID_2_" gradientUnits="userSpaceOnUse" x1="-272.7124" y1="1543.1786" x2="-185.6209" y2="1543.1786" gradientTransform="matrix(0.9753 -0.2207 0.2207 0.9753 6.0031 363.8358)">
	<stop  offset="1.511000e-03" style="stop-color:#AD1C5A"/>
	<stop  offset="0.3556" style="stop-color:#C42351"/>
	<stop  offset="0.7245" style="stop-color:#D52849"/>
	<stop  offset="0.9995" style="stop-color:#DB2A47"/>
</linearGradient>
<path class="st1" d="M165.7,1910.4c5.4,22.8-9.2,45.4-32.7,50.5c-23.5,5.1-47-9.4-52.4-32.2c-5.4-22.8,9.2-45.4,32.7-50.5
	S160.3,1887.6,165.7,1910.4z"/>
<linearGradient id="SVGID_3_" gradientUnits="userSpaceOnUse" x1="-2.8109" y1="1466.1437" x2="62.0514" y2="1466.1437" gradientTransform="matrix(0.9753 -0.2207 0.2207 0.9753 6.0031 363.8358)">
	<stop  offset="1.511000e-03" style="stop-color:#F4ED02"/>
	<stop  offset="0.1547" style="stop-color:#F4E605"/>
	<stop  offset="0.6388" style="stop-color:#F3D50E"/>
	<stop  offset="0.9995" style="stop-color:#F3CF11"/>
</linearGradient>
<ellipse class="st2" cx="358.5" cy="1787.3" rx="32.3" ry="34.3"/>
<linearGradient id="SVGID_4_" gradientUnits="userSpaceOnUse" x1="473.2613" y1="871.471" x2="544.8878" y2="871.471" gradientTransform="matrix(-0.9216 0.3882 -0.3882 -0.9216 1629.3756 2427.165)">
	<stop  offset="1.511000e-03" style="stop-color:#AD1C5A"/>
	<stop  offset="0.3556" style="stop-color:#C42351"/>
	<stop  offset="0.7245" style="stop-color:#D52849"/>
	<stop  offset="0.9995" style="stop-color:#DB2A47"/>
</linearGradient>
<ellipse class="st3" cx="821.9" cy="1821.6" rx="36.1" ry="34.3"/>
<linearGradient id="SVGID_5_" gradientUnits="userSpaceOnUse" x1="220.5762" y1="1488.2167" x2="248.8905" y2="1488.2167" gradientTransform="matrix(0.9753 -0.2207 0.2207 0.9753 6.0031 363.8358)">
	<stop  offset="1.511000e-03" style="stop-color:#AD1C5A"/>
	<stop  offset="0.3556" style="stop-color:#C42351"/>
	<stop  offset="0.7245" style="stop-color:#D52849"/>
	<stop  offset="0.9995" style="stop-color:#DB2A47"/>
</linearGradient>
<ellipse class="st4" cx="563.5" cy="1763.5" rx="14.1" ry="15"/>
<linearGradient id="SVGID_6_" gradientUnits="userSpaceOnUse" x1="897.8434" y1="1706.6678" x2="995.4988" y2="1706.6678" gradientTransform="matrix(0.2742 -0.9617 0.9617 0.2742 -951.1435 2128.0813)">
	<stop  offset="1.511000e-03" style="stop-color:#647BBA"/>
	<stop  offset="1.241577e-02" style="stop-color:#647CBB"/>
	<stop  offset="0.403" style="stop-color:#7498CD"/>
	<stop  offset="0.7451" style="stop-color:#7EA9D9"/>
	<stop  offset="0.9995" style="stop-color:#81AFDD"/>
</linearGradient>
<path class="st5" d="M955.8,1734.2c-27,3.2-51.6-16-54.9-42.7s15.8-51.1,42.8-54.3c27-3.2,51.6,16,54.9,42.7
	C1001.9,1706.8,982.8,1731,955.8,1734.2z"/>
<linearGradient id="SVGID_7_" gradientUnits="userSpaceOnUse" x1="539.8735" y1="1294.517" x2="604.7359" y2="1294.517" gradientTransform="matrix(1.5695 -0.3552 0.3342 1.4768 -281.2001 78.6566)">
	<stop  offset="1.511000e-03" style="stop-color:#F4ED02"/>
	<stop  offset="0.1547" style="stop-color:#F4E605"/>
	<stop  offset="0.6388" style="stop-color:#F3D50E"/>
	<stop  offset="0.9995" style="stop-color:#F3CF11"/>
</linearGradient>
<path class="st6" d="M1100.4,1774.9c5.9,28-12,56-40,62.7s-55.6-10.5-61.5-38.5s12-56,40-62.7
	C1066.9,1729.7,1094.5,1747,1100.4,1774.9z"/>
<linearGradient id="SVGID_8_" gradientUnits="userSpaceOnUse" x1="-115.8115" y1="1141.6428" x2="-12.2031" y2="1141.6428" gradientTransform="matrix(1.5695 -0.3552 0.3342 1.4768 -281.2001 78.6566)">
	<stop  offset="1.511000e-03" style="stop-color:#F4ED02"/>
	<stop  offset="0.1547" style="stop-color:#F4E605"/>
	<stop  offset="0.6388" style="stop-color:#F3D50E"/>
	<stop  offset="0.9995" style="stop-color:#F3CF11"/>
</linearGradient>
<path class="st7" d="M81,1767.9c9.5,44.7-19.1,89.5-63.9,100.2c-44.8,10.7-88.8-16.8-98.3-61.5s19.1-89.5,63.9-100.2
	C27.5,1695.8,71.5,1723.3,81,1767.9z"/>
<linearGradient id="SVGID_9_" gradientUnits="userSpaceOnUse" x1="690.4944" y1="1447.5201" x2="735.7244" y2="1447.5201" gradientTransform="matrix(0.2742 -0.9617 0.9617 0.2742 -951.1435 2128.0813)">
	<stop  offset="1.511000e-03" style="stop-color:#647BBA"/>
	<stop  offset="1.241577e-02" style="stop-color:#647CBB"/>
	<stop  offset="0.403" style="stop-color:#7498CD"/>
	<stop  offset="0.7451" style="stop-color:#7EA9D9"/>
	<stop  offset="0.9995" style="stop-color:#81AFDD"/>
</linearGradient>
<path class="st8" d="M639.2,1861.7c-12.5,1.5-23.9-7.4-25.5-19.8s7.3-23.7,19.8-25.1c12.5-1.5,23.9,7.4,25.5,19.8
	C660.6,1849,651.8,1860.3,639.2,1861.7z"/>
<linearGradient id="SVGID_10_" gradientUnits="userSpaceOnUse" x1="335.3727" y1="1539.6315" x2="374.9855" y2="1539.6315" gradientTransform="matrix(0.9753 -0.2207 0.2207 0.9753 6.0031 363.8358)">
	<stop  offset="1.511000e-03" style="stop-color:#F4ED02"/>
	<stop  offset="0.1547" style="stop-color:#F4E605"/>
	<stop  offset="0.6388" style="stop-color:#F3D50E"/>
	<stop  offset="0.9995" style="stop-color:#F3CF11"/>
</linearGradient>
<ellipse class="st9" cx="692.3" cy="1787.1" rx="19.7" ry="20.9"/>
<linearGradient id="SVGID_11_" gradientUnits="userSpaceOnUse" x1="1067.5662" y1="354.2487" x2="1143.2793" y2="354.2487" gradientTransform="matrix(-0.8326 -0.5539 0.5539 -0.8326 1182.2083 2777.3645)">
	<stop  offset="1.511000e-03" style="stop-color:#647BBA"/>
	<stop  offset="1.241577e-02" style="stop-color:#647CBB"/>
	<stop  offset="0.403" style="stop-color:#7498CD"/>
	<stop  offset="0.7451" style="stop-color:#7EA9D9"/>
	<stop  offset="0.9995" style="stop-color:#81AFDD"/>
</linearGradient>
<path class="st10" d="M495.3,1877.1c-4,20.7-24,34.3-44.5,30.5c-20.6-3.8-34-23.7-30-44.4s24-34.3,44.5-30.5
	S499.3,1856.4,495.3,1877.1z"/>
</svg>
